# 3ds Max Wavefront OBJ Exporter v0.97b - (c)2007 guruware
# File Created: 04.03.2013 04:44:31

mtllib ship9.mtl

#
# object Box002
#

v  -0.1384 0.0688 -0.4864
v  0.1423 0.0688 -0.4844
v  0.1400 0.0688 0.4843
v  -0.1407 0.0688 0.4823
v  -0.1384 0.2703 -0.4864
v  -0.1407 0.2703 0.4823
v  0.1400 0.2703 0.4843
v  0.1423 0.2703 -0.4844
v  -0.2015 0.2241 -0.4637
v  -0.0466 0.2241 -0.4637
v  -0.0466 0.3790 -0.4637
v  -0.2015 0.3790 -0.4637
v  -0.0700 0.2475 -0.5318
v  -0.1780 0.2475 -0.5318
v  -0.1780 0.3556 -0.5318
v  -0.0700 0.3556 -0.5318
v  -0.2015 0.2241 -0.6343
v  -0.0466 0.2241 -0.6343
v  -0.0466 0.3790 -0.6343
v  -0.2015 0.3790 -0.6343
v  -0.1780 0.2475 -0.6490
v  -0.0700 0.2475 -0.6490
v  -0.1780 0.3556 -0.6490
v  -0.0700 0.3556 -0.6490
v  0.0465 0.2242 -0.4637
v  0.2014 0.2242 -0.4637
v  0.2014 0.3791 -0.4637
v  0.0465 0.3791 -0.4637
v  0.1780 0.2476 -0.5318
v  0.0700 0.2476 -0.5318
v  0.0700 0.3557 -0.5318
v  0.1780 0.3557 -0.5318
v  0.0465 0.2242 -0.6343
v  0.2014 0.2242 -0.6343
v  0.2014 0.3791 -0.6343
v  0.0465 0.3791 -0.6343
v  0.0700 0.2476 -0.6490
v  0.1780 0.2476 -0.6490
v  0.0700 0.3557 -0.6490
v  0.1780 0.3557 -0.6490
# 40 vertices

vn 0.0000 -1.0000 -0.0000
vn 0.0000 1.0000 -0.0000
vn -1.0000 0.0000 -0.0024
vn -0.0071 0.0000 1.0000
vn 1.0000 0.0000 0.0024
vn 0.0071 0.0000 -1.0000
vn 0.0000 0.0000 1.0000
vn 0.0000 0.0000 -1.0000
vn 1.0000 0.0000 -0.0000
vn -1.0000 0.0000 -0.0000
vn 0.0000 -0.5319 -0.8468
vn -0.5303 0.0000 -0.8478
vn 0.0000 0.5319 -0.8468
vn 0.5319 0.0000 -0.8468
# 14 vertex normals

vt 1.0000 0.0000 0.0000
vt 1.0000 1.0000 0.0000
vt 0.0000 1.0000 0.0000
vt 0.0000 0.0000 0.0000
vt 0.7565 0.0000 0.0000
vt 0.7565 1.0000 0.0000
vt 0.2038 1.0000 0.0000
vt 0.2038 0.0000 0.0000
vt 0.2064 1.0000 0.0000
vt 0.2064 0.0000 0.0000
vt 0.7539 0.0000 0.0000
vt 0.7539 1.0000 0.0000
vt 0.2011 1.0000 0.0000
vt 0.2011 0.0000 0.0000
# 14 texture coords

g Box002
usemtl wire_225088199
s 2
f 1/1/1 2/2/1 3/3/1 
f 3/3/1 4/4/1 1/1/1 
s 4
f 5/4/2 6/1/2 7/2/2 
f 7/2/2 8/3/2 5/4/2 
s 8
f 1/4/3 4/1/3 6/2/3 
f 6/2/3 5/3/3 1/4/3 
s 16
f 4/4/4 3/1/4 7/2/4 
f 7/2/4 6/3/4 4/4/4 
s 32
f 3/4/5 2/1/5 8/2/5 
f 8/2/5 7/3/5 3/4/5 
s 64
f 2/4/6 1/1/6 5/2/6 
f 5/2/6 8/3/6 2/4/6 
usemtl wire_198225087
s 8
f 9/4/7 10/1/7 11/2/7 
f 11/2/7 12/3/7 9/4/7 
s 32
f 13/4/8 14/1/8 15/2/8 
f 15/2/8 16/3/8 13/4/8 
s off
f 10/4/1 9/1/1 17/2/1 
f 17/2/1 18/3/1 10/4/1 
f 12/4/2 11/1/2 19/2/2 
f 19/2/2 20/3/2 12/4/2 
f 11/4/9 10/1/9 18/2/9 
f 18/2/9 19/3/9 11/4/9 
f 9/4/10 12/1/10 20/2/10 
f 20/2/10 17/3/10 9/4/10 
f 18/4/11 17/5/11 21/6/11 
f 21/2/11 22/7/11 18/8/11 
f 17/4/12 20/5/12 23/6/12 
f 23/2/12 21/7/12 17/8/12 
f 20/4/13 19/5/13 24/6/13 
f 24/2/13 23/9/13 20/10/13 
f 19/4/14 18/11/14 22/12/14 
f 22/2/14 24/13/14 19/14/14 
f 22/2/2 21/3/2 14/4/2 
f 14/4/2 13/1/2 22/2/2 
f 21/2/9 23/3/9 15/4/9 
f 15/4/9 14/1/9 21/2/9 
f 23/2/1 24/3/1 16/4/1 
f 16/4/1 15/1/1 23/2/1 
f 24/2/10 22/3/10 13/4/10 
f 13/4/10 16/1/10 24/2/10 
usemtl wire_225088199
s 2
f 1/1/1 2/2/1 3/3/1 
f 3/3/1 4/4/1 1/1/1
s 4
f 5/4/2 6/1/2 7/2/2 
f 7/2/2 8/3/2 5/4/2 
s 8
f 1/4/3 4/1/3 6/2/3 
f 6/2/3 5/3/3 1/4/3 
s 16
f 4/4/4 3/1/4 7/2/4 
f 7/2/4 6/3/4 4/4/4 
s 32
f 3/4/5 2/1/5 8/2/5 
f 8/2/5 7/3/5 3/4/5 
s 64
f 2/4/6 1/1/6 5/2/6 
f 5/2/6 8/3/6 2/4/6 
s 2
f 1/1/1 2/2/1 3/3/1 
f 3/3/1 4/4/1 1/1/1 
s 4
f 5/4/2 6/1/2 7/2/2 
f 7/2/2 8/3/2 5/4/2 
s 8
f 1/4/3 4/1/3 6/2/3 
f 6/2/3 5/3/3 1/4/3 
s 16
f 4/4/4 3/1/4 7/2/4 
f 7/2/4 6/3/4 4/4/4 
s 32
f 3/4/5 2/1/5 8/2/5 
f 8/2/5 7/3/5 3/4/5 
s 64
f 2/4/6 1/1/6 5/2/6 
f 5/2/6 8/3/6 2/4/6 
usemtl wire_198225087
s 8
f 25/4/7 26/1/7 27/2/7 
f 27/2/7 28/3/7 25/4/7 
s 32
f 29/4/8 30/1/8 31/2/8 
f 31/2/8 32/3/8 29/4/8 
s off
f 26/4/1 25/1/1 33/2/1 
f 33/2/1 34/3/1 26/4/1 
f 28/4/2 27/1/2 35/2/2 
f 35/2/2 36/3/2 28/4/2 
f 27/4/9 26/1/9 34/2/9 
f 34/2/9 35/3/9 27/4/9 
f 25/4/10 28/1/10 36/2/10 
f 36/2/10 33/3/10 25/4/10 
f 34/4/11 33/5/11 37/6/11 
f 37/2/11 38/7/11 34/8/11 
f 33/4/12 36/5/12 39/6/12 
f 39/2/12 37/7/12 33/8/12 
f 36/4/13 35/5/13 40/6/13 
f 40/2/13 39/9/13 36/10/13 
f 35/4/14 34/11/14 38/12/14 
f 38/2/14 40/13/14 35/14/14 
f 38/2/2 37/3/2 30/4/2 
f 30/4/2 29/1/2 38/2/2 
f 37/2/9 39/3/9 31/4/9 
f 31/4/9 30/1/9 37/2/9 
f 39/2/1 40/3/1 32/4/1 
f 32/4/1 31/1/1 39/2/1 
f 40/2/10 38/3/10 29/4/10 
f 29/4/10 32/1/10 40/2/10 
usemtl wire_225088199
s 2
f 1/1/1 2/2/1 3/3/1 
f 3/3/1 4/4/1 1/1/1 
s 4
f 5/4/2 6/1/2 7/2/2 
f 7/2/2 8/3/2 5/4/2 
s 8
f 1/4/3 4/1/3 6/2/3 
f 6/2/3 5/3/3 1/4/3 
s 16
f 4/4/4 3/1/4 7/2/4 
f 7/2/4 6/3/4 4/4/4 
s 32
f 3/4/5 2/1/5 8/2/5 
f 8/2/5 7/3/5 3/4/5 
s 64
f 2/4/6 1/1/6 5/2/6 
f 5/2/6 8/3/6 2/4/6 
# 104 faces

